<?xml version="1.0" encoding="UTF-8" standalone="no"?>
<!-- Created with Inkscape (http://www.inkscape.org/) -->

<svg
   width="123mm"
   height="182mm"
   viewBox="0 0 123 182"
   version="1.1"
   id="svg1"
   inkscape:version="1.3 (0e150ed6c4, 2023-07-21)"
   sodipodi:docname="martin-trace-result.svg"
   xmlns:inkscape="http://www.inkscape.org/namespaces/inkscape"
   xmlns:sodipodi="http://sodipodi.sourceforge.net/DTD/sodipodi-0.dtd"
   xmlns="http://www.w3.org/2000/svg"
   xmlns:svg="http://www.w3.org/2000/svg">
  <sodipodi:namedview
     id="namedview1"
     pagecolor="#ffffff"
     bordercolor="#000000"
     borderopacity="0.25"
     inkscape:showpageshadow="2"
     inkscape:pageopacity="0.0"
     inkscape:pagecheckerboard="0"
     inkscape:deskcolor="#d1d1d1"
     inkscape:document-units="mm"
     inkscape:zoom="0.45700758"
     inkscape:cx="260.38956"
     inkscape:cy="381.83174"
     inkscape:window-width="1366"
     inkscape:window-height="705"
     inkscape:window-x="-8"
     inkscape:window-y="-8"
     inkscape:window-maximized="1"
     inkscape:current-layer="layer1" />
  <defs
     id="defs1" />
  <g
     inkscape:label="Laag 1"
     inkscape:groupmode="layer"
     id="layer1"
     transform="translate(-24.113133,-29.851651)">
    <path
       id="path4-6"
       style="fill:#000000;stroke-width:0.999998"
       d="m 113.93418,210.19841 c -1.67001,-0.60256 -2.09707,-0.85181 -3.03415,-1.77072 -0.98985,-0.9707 -1.10155,-1.16599 -1.20995,-2.11501 -0.15411,-1.3501 -0.68648,-2.38089 -1.415,-2.73993 -0.74306,-0.3662 -1.24464,-1.34673 -1.24464,-2.43325 0,-0.97701 -0.20041,-1.19312 -0.77577,-0.83646 -0.33593,0.20825 -0.43499,0.20127 -0.59726,-0.042 -0.18167,-0.27244 -0.16513,-0.56272 0.12501,-2.18961 l 0.1131,-0.63406 h -1.97918 c -1.83897,0 -2.00528,-0.0322 -2.34672,-0.4538 -0.2021,-0.24958 -0.45909,-0.81738 -0.57117,-1.26177 -0.11207,-0.44439 -0.42132,-1.5113 -0.68729,-2.3709 -0.712342,-2.30279 -0.891513,-3.75811 -0.765623,-6.21916 0.08937,-1.74652 0.04997,-2.35411 -0.188945,-2.92632 -0.438741,-1.0501 -1.049524,-4.05235 -1.473566,-7.24379 -0.20357,-1.53202 -0.556694,-3.29713 -0.784736,-3.92247 -0.345628,-0.94806 -0.396484,-1.40601 -0.305943,-2.75617 0.05953,-0.89057 0.16653,-1.95127 0.237302,-2.35712 0.118394,-0.67875 0.07055,-0.78789 -0.592851,-1.36163 l -0.721534,-0.62372 -0.159402,-2.15414 c -0.08768,-1.18477 -0.298006,-2.48584 -0.467402,-2.89129 -0.169397,-0.40543 -0.309323,-0.92334 -0.31094,-1.15091 -0.0073,-0.57429 -0.400893,-1.64257 -0.920694,-2.47837 -0.40883,-0.65743 -0.437492,-0.91946 -0.437492,-4.00083 0,-3.29309 -6.61e-4,-3.29793 -0.501722,-3.76867 -0.42125,-0.39572 -0.481439,-0.58052 -0.375392,-1.15195 0.06908,-0.37433 0.195559,-2.69311 0.280221,-5.15284 0.08473,-2.45973 0.214961,-4.74782 0.289407,-5.08465 0.08341,-0.37752 0.01249,-1.04875 -0.184242,-1.75 -0.175863,-0.62567 -0.377743,-1.40009 -0.448662,-1.72092 -0.265375,-1.19965 -0.455276,-1.33875 -1.512296,-1.10782 -0.52252,0.11417 -1.689041,0.26047 -2.592245,0.32514 -0.903203,0.0647 -1.751509,0.20832 -1.885189,0.31925 -0.13368,0.11093 -0.385313,0.65434 -0.559192,1.20756 -0.173953,0.55324 -0.397954,1.18088 -0.497901,1.39477 -0.09987,0.21388 -0.712274,1.74513 -1.360905,3.40278 -1.05724,2.7017 -1.199519,3.23544 -1.373839,5.15278 -0.14125,1.55333 -0.13346,2.34497 0.02866,2.89162 0.146174,0.49318 0.179024,1.46533 0.09532,2.81945 -0.09679,1.56707 -0.05438,2.37228 0.176746,3.33061 0.167412,0.69514 0.305722,1.62864 0.307265,2.07445 0,0.80821 0,0.81323 -1.561608,1.73438 -0.860432,0.50811 -1.605264,0.98985 -1.655091,1.07054 -0.04997,0.0807 0.131549,0.56477 0.403246,1.07573 0.342835,0.64475 0.462626,1.11037 0.39156,1.52169 -0.05659,0.32596 -0.196221,1.2377 -0.310793,2.02608 -0.242301,1.66657 -0.794512,3.54513 -1.490985,5.07206 -0.297565,0.65236 -0.595497,1.84549 -0.754752,3.02232 -0.144704,1.06944 -0.34188,2.38195 -0.438227,2.91667 -0.58631,3.25476 -0.996683,5.13676 -1.246552,5.71708 -0.268463,0.62363 -0.254132,0.72386 0.249942,1.75 0.863739,1.7585 0.907833,2.9222 0.20651,5.44902 -0.672957,2.42457 -0.756369,4.00061 -0.285072,5.38876 0.400305,1.17899 0.472179,5.33135 0.100095,5.77971 -0.136987,0.16509 -0.370027,0.70189 -0.517744,1.19288 -0.23326,0.77499 -0.231128,0.90712 0.01617,1.00206 0.355109,0.13629 0.37304,0.91924 0.02719,1.20598 -0.18799,0.156 -0.319171,0.15193 -0.486142,-0.0151 -0.17535,-0.17532 -0.228704,-0.16888 -0.228704,0.0275 0,0.14096 -0.26251,0.55525 -0.583371,0.92066 -0.320788,0.36541 -0.583297,0.82991 -0.583297,1.0322 0,0.42333 -1.973819,1.49364 -2.338628,1.26816 -0.12126,-0.0749 -0.349303,0.0481 -0.507382,0.27386 -0.176672,0.25224 -0.498195,0.40997 -0.835665,0.40997 -0.30168,0 -0.658772,0.13286 -0.793555,0.29525 -0.689639,0.83095 -6.000901,2.3893 -8.267728,2.42579 -2.031877,0.0327 -4.415996,-0.43344 -5.338233,-1.04374 -0.658185,-0.43555 -0.77996,-0.6202 -0.77996,-1.18247 0,-0.36648 -0.0959,-0.7256 -0.213123,-0.79805 -0.123538,-0.0764 -0.165722,-0.38764 -0.100315,-0.74065 0.06173,-0.3349 0.156094,-0.86721 0.208861,-1.18291 0.05291,-0.3157 0.313512,-0.77563 0.579255,-1.02206 0.265743,-0.24643 0.57514,-0.78936 0.687434,-1.20651 0.153523,-0.57008 0.342027,-0.80648 0.759015,-0.95183 0.30506,-0.10637 1.006164,-0.66139 1.55786,-1.23339 0.551696,-0.572 1.395299,-1.43375 1.874606,-1.915 0.550741,-0.55297 0.8985,-1.08969 0.944873,-1.45833 0.106929,-0.85047 0.321964,-1.29528 0.914521,-1.89203 0.619676,-0.62398 0.902836,-2.10288 0.594248,-3.10358 -0.898574,-2.91398 -0.98691,-4.22112 -0.424484,-6.28219 0.275003,-1.00795 0.531192,-1.50397 0.987351,-1.9117 0.410446,-0.36684 0.649218,-0.78865 0.715434,-1.2639 0.286614,-2.05551 0.265449,-2.79456 -0.123833,-4.33417 -0.258541,-1.02226 -0.40611,-2.22415 -0.40611,-3.30687 0,-0.9355 -0.139633,-2.29697 -0.310279,-3.02548 -0.325859,-1.39127 -0.298153,-3.12905 0.0984,-6.17266 l 0.200925,-1.54253 -0.953398,-1.00807 c -1.11765,-1.18182 -1.505829,-2.00627 -1.530816,-3.25171 -0.01837,-0.93193 0.174688,-1.24975 0.599318,-0.98477 0.322699,0.2014 0.948621,0.29216 1.240968,0.17996 0.180494,-0.0693 0.16778,-0.34875 -0.05438,-1.20045 -0.219297,-0.8398 -0.234142,-1.14463 -0.061,-1.25158 0.322185,-0.1991 -0.08194,-0.41816 -0.485628,-0.26326 -0.265081,0.10174 -0.298446,0.0279 -0.196955,-0.43687 l 0.122142,-0.55932 -0.275003,0.48612 c -0.163518,0.28898 -0.206657,0.57586 -0.106489,0.70743 0.193502,0.25413 -0.0073,1.77812 -0.253102,1.93066 -0.09047,0.0559 -0.157051,-0.44912 -0.147938,-1.12236 0.0088,-0.67323 0.0976,-1.2748 0.196662,-1.33682 0.09899,-0.062 0.199822,-0.41201 0.223927,-0.77778 0.03895,-0.58857 1.180117,-2.51503 1.487383,-2.51073 0.275297,0.004 0.572053,1.03826 0.393543,1.37177 -0.234215,0.43761 -0.236346,0.97137 -0.0073,1.33643 0.262436,0.41479 0.71955,-0.0392 0.875351,-0.86942 0.06982,-0.37049 0.224441,-0.67363 0.344378,-0.67363 0.119937,0 0.167412,-0.0506 0.10546,-0.11259 -0.136473,-0.13648 0.322478,-1.52572 0.838457,-2.53766 0.450353,-0.88335 0.482689,-1.43309 0.08429,-1.43309 -0.160431,0 -0.291612,0.105 -0.291612,0.23334 0,0.18147 -0.05218,0.18147 -0.233334,0 -0.293008,-0.29301 -0.981177,-0.30221 -1.266396,-0.017 -0.282205,0.28219 -0.639224,0.0537 -0.639224,-0.40921 0,-0.43773 0.693167,-0.70286 1.054154,-0.40323 0.395528,0.32824 0.833755,0.0526 0.965744,-0.60736 0.179906,-0.89944 0.15852,-0.94087 -0.379727,-0.73623 -0.667445,0.25374 -0.668327,0.25339 -0.664946,-0.24787 0.0073,-0.48815 0.37767,-1.22523 0.382961,-0.75397 0,0.22263 0.05438,0.22405 0.314247,0.009 0.171234,-0.14209 0.411843,-0.27537 0.53472,-0.29617 0.122877,-0.0208 0.46608,-0.13262 0.762615,-0.24848 0.449618,-0.17562 0.518846,-0.29197 0.416473,-0.69986 -0.105533,-0.42035 -0.05732,-0.48922 0.341439,-0.48922 0.255381,0 0.590426,-0.175 0.74461,-0.38889 0.154111,-0.21389 0.457849,-0.39155 0.674867,-0.3948 0.364295,-0.005 0.36819,-0.0212 0.04997,-0.20639 -0.189459,-0.11027 -0.299328,-0.27344 -0.24421,-0.36261 0.05512,-0.0892 -0.03822,-0.21514 -0.206877,-0.27995 -0.468137,-0.17964 -2.002187,0.99367 -1.884969,1.44176 0.07276,0.27914 0.0088,0.3368 -0.287423,0.25926 -0.237449,-0.0621 -0.425806,0.0163 -0.499297,0.20762 -0.06467,0.16903 -0.253544,0.30734 -0.419413,0.30734 -0.321816,0 -0.322625,0.008 0.216284,-2.13114 0.147129,-0.58393 0.267434,-1.29851 0.267434,-1.58796 0,-0.28946 0.08922,-0.55602 0.198278,-0.59237 0.109061,-0.0364 0.205995,-0.63426 0.215402,-1.32871 0.0096,-0.7152 0.113396,-1.32455 0.239213,-1.40546 0.150289,-0.0967 0.128976,-0.14383 -0.06614,-0.14584 -0.15852,-0.001 0.0485,-0.23157 0.459392,-0.51097 1.353188,-0.91949 1.487309,-1.13202 1.36502,-2.16235 -0.06026,-0.50979 -0.03748,-0.83938 0.05218,-0.73244 0.145291,0.1745 0.528767,0.20787 1.433881,0.12475 0.164914,-0.0151 0.631654,-0.34058 1.037324,-0.72319 0.713744,-0.67323 0.726385,-0.70796 0.392589,-1.07679 -0.300652,-0.33222 -0.366352,-0.34276 -0.512232,-0.0821 -0.09201,0.16445 -0.294184,0.299 -0.449323,0.299 -0.155066,0 -0.281985,0.0793 -0.281985,0.17625 0,0.0969 -0.174982,0.13047 -0.388914,0.0745 -0.327476,-0.0856 -0.38884,-0.006 -0.38884,0.50431 0,0.33331 -0.07739,0.60602 -0.171896,0.60602 -0.279412,0 -0.09826,-1.23896 0.194898,-1.33313 0.279486,-0.0898 0.552211,-0.41087 0.557355,-0.65623 0,-0.0782 -0.218635,-0.19773 -0.489376,-0.26569 -0.438447,-0.11004 -0.45726,-0.14922 -0.171601,-0.35807 0.297638,-0.21766 0.297785,-0.27891 0,-0.85237 -0.175717,-0.33981 -0.387224,-0.61784 -0.470048,-0.61784 -0.328872,0 -0.61725,0.49757 -0.61725,1.06506 0,0.32913 -0.12442,0.77608 -0.276546,0.99325 -0.152127,0.21717 -0.305282,0.69602 -0.340263,1.0641 -0.04189,0.43694 -0.164987,0.66925 -0.355402,0.66925 -0.243035,0 -0.279633,-0.29192 -0.219297,-1.75 0.03969,-0.9625 0.152273,-1.96085 0.250016,-2.21856 0.11369,-0.29975 0.09627,-0.83241 -0.0485,-1.47855 -0.124273,-0.5555 -0.176525,-1.30715 -0.116042,-1.67033 0.329606,-1.97961 0.534646,-2.80327 0.712714,-2.86263 0.109281,-0.0365 0.19872,-0.15481 0.19872,-0.26307 0,-0.10826 0.185785,-0.45771 0.412798,-0.77655 0.375539,-0.5274 0.400599,-0.73544 0.27787,-2.30485 -0.148599,-1.89952 0.05879,-2.64617 0.973093,-3.50521 0.764452,-0.7182 0.635696,-1.47098 -0.443371,-2.59151 -0.864547,-0.89778 -0.911581,-1.002 -0.871161,-1.93083 0.02352,-0.54 0.172262,-1.12494 0.330562,-1.29986 0.158299,-0.17492 0.343349,-0.5956 0.411182,-0.93484 0.107958,-0.5399 -0.0073,-0.78074 -0.924075,-1.93169 -0.576095,-0.72319 -1.285356,-1.6353 -1.576233,-2.02691 -0.909965,-1.22539 -2.97653,-3.18879 -3.735103,-3.54877 -0.524872,-0.24906 -0.924001,-0.30548 -1.436968,-0.20313 -0.390677,0.078 -1.117356,0.12381 -1.614963,0.10191 -1.825735,-0.0803 -3.957192,0.37054 -5.000836,1.05791 -1.409923,0.92853 -2.219205,1.13811 -4.264678,1.1044 -1.835583,-0.0302 -4.907136,-0.61897 -5.918959,-1.13449 -0.476147,-0.24259 -0.507601,-0.31674 -0.291685,-0.68854 0.133092,-0.22916 0.386783,-0.56891 0.563822,-0.75499 0.406111,-0.4268 0.33578,-2.42609 -0.130005,-3.695007 -0.625702,-1.704703 -0.717713,-2.392769 -0.570143,-4.263407 0.0801,-1.015968 0.161313,-2.532894 0.18042,-3.37094 0.03822,-1.672227 0.100242,-1.767119 1.281021,-1.955924 0.781796,-0.125023 1.541031,-0.915388 1.542647,-1.605938 0,-0.808121 2.173274,-3.335165 3.775229,-4.393545 1.581157,-1.044681 1.680958,-1.272136 1.969483,-4.488855 0.12905,-1.439018 0.20041,-1.619659 1.286312,-3.256952 0.632389,-0.953382 1.233912,-1.733422 1.336726,-1.733422 0.102887,0 0.186961,-0.143095 0.186961,-0.317981 0,-0.174894 0.196882,-0.509953 0.437565,-0.744588 0.514657,-0.501891 0.909817,-1.01344 1.312474,-1.699103 0.950091,-1.617961 2.323636,-3.241794 2.757894,-3.260417 0.07276,-0.0029 0.582048,-0.443201 1.131025,-0.977929 0.548977,-0.53472 1.104201,-0.972218 1.233839,-0.972218 0.129711,0 0.68104,-0.473017 1.225241,-1.051141 0.544126,-0.578131 1.285356,-1.20359 1.647078,-1.389919 0.361722,-0.186329 0.985734,-0.675815 1.386627,-1.087754 0.400966,-0.411931 0.784883,-0.748975 0.853303,-0.748975 0.06835,0 0.06541,0.577631 -0.0073,1.283622 -0.07202,0.70599 -0.05218,1.384113 0.04556,1.506946 0.0973,0.122832 0.463728,1.01083 0.814353,1.973326 0.350625,0.962503 0.747843,1.925007 0.882699,2.138895 0.13493,0.213888 0.456967,0.771456 0.715655,1.239042 0.803329,1.451938 2.327825,3.153987 2.93339,3.275101 0.611738,0.122347 0.908495,0.674595 0.908495,1.690614 0,0.382006 0.149774,0.773279 0.373407,0.975698 0.356357,0.322485 0.383549,0.318987 0.595276,-0.07654 0.128977,-0.241072 0.175717,-0.796935 0.111707,-1.328635 -0.07555,-0.627671 -0.01984,-1.066493 0.177407,-1.400266 0.158005,-0.26736 0.425439,-0.792365 0.594174,-1.166669 0.168661,-0.374304 0.52105,-1.086151 0.782972,-1.581877 0.261922,-0.495718 0.476148,-1.068845 0.476148,-1.273612 0,-0.204761 0.07276,-0.455424 0.161606,-0.557017 0.152861,-0.174762 0.400305,-0.994994 1.111697,-3.684732 0.169764,-0.641664 0.382741,-1.738016 0.473429,-2.436342 0.09069,-0.698318 0.304179,-1.807127 0.474384,-2.464018 0.170205,-0.656891 0.364368,-1.74804 0.431465,-2.424774 0.132724,-1.339129 0.442343,-2.21384 0.452632,-1.279043 0.0073,0.55271 0.27662,0.718528 0.475853,0.29167 0.07055,-0.151229 0.15073,-0.167713 0.212316,-0.04365 0.05438,0.109685 0.426247,0.168691 0.826405,0.131122 0.751371,-0.07055 2.718356,0.392339 6.755285,1.589741 1.283299,0.380654 2.573946,0.69493 2.868057,0.698406 0.294037,0.0037 0.53472,0.09655 0.53472,0.206855 0,0.110303 0.153081,0.256079 0.340263,0.323963 0.187181,0.06791 0.6903,0.358401 1.118017,0.645603 1.798837,1.20772 2.751721,1.746556 3.088456,1.746556 0.123465,0 0.921209,0.35 1.772674,0.777784 0.85154,0.427775 1.673458,0.777776 1.826468,0.777776 0.15308,0 0.65782,0.222435 1.12177,0.494307 0.75431,0.442055 0.93039,0.662932 0.87189,1.09356 -0.0184,0.133834 1.67192,1.793017 2.91392,2.860626 0.3884,0.333884 0.89997,0.607072 1.13676,0.607072 0.59211,0 2.51765,0.54154 3.14533,0.884596 0.2839,0.155139 0.69604,0.282072 0.91599,0.282072 0.21989,0 0.51003,0.118012 0.64481,0.262253 0.13471,0.144233 0.39076,0.22411 0.56904,0.177502 0.55758,-0.145813 0.58845,0.282404 0.0748,1.039221 -0.4225,0.622652 -0.47784,0.870683 -0.38238,1.714763 0.18278,1.615595 0.28464,1.861827 0.76997,1.861827 0.24274,0 0.55015,0.131247 0.68332,0.291663 0.13316,0.160416 0.39619,0.291671 0.58454,0.291671 0.37444,0 1.47511,-1.129482 2.05158,-2.105361 0.37032,-0.626885 0.81927,-0.753965 1.76606,-0.499914 0.38024,0.102012 0.4261,0.282051 0.5317,2.087627 0.0639,1.086791 0.17124,2.622034 0.23929,3.41165 0.0899,1.043879 0.0639,1.398627 -0.0959,1.299951 -0.12081,-0.07465 -0.38391,-0.08358 -0.58469,-0.01984 -0.49944,0.158527 -0.73822,1.290324 -0.58859,2.79009 0.14169,1.419984 0.65429,2.271928 1.36701,2.271928 0.52435,0 0.56014,-0.28319 0.2861,-2.261485 -0.15088,-1.089393 -0.14926,-1.094361 0.32652,-1.003416 0.60828,0.116292 0.73072,-0.180876 0.86837,-2.107705 0.078,-1.092112 0.022,-1.729932 -0.21188,-2.416587 -0.37172,-1.090858 -0.42029,-3.016761 -0.0845,-3.352482 0.35628,-0.356314 0.73887,-0.278266 0.73887,0.150744 0,0.324882 0.072,0.356777 0.46586,0.206958 0.30786,-0.117041 0.8586,-0.08549 1.62386,0.09304 2.08339,0.486025 2.69116,0.977444 1.7992,1.454811 -0.21393,0.114477 -0.38891,0.316805 -0.38891,0.449625 0,0.320019 -1.08142,1.49483 -1.37597,1.49483 -0.78819,0 -1.28154,1.692812 -1.0945,3.755342 0.1023,1.128056 0.51664,1.838037 0.92525,1.585478 0.0811,-0.05012 0.15521,-0.811971 0.16469,-1.692944 0.0154,-1.454436 0.0698,-1.673535 0.59116,-2.381774 0.31572,-0.428996 0.67524,-0.755097 0.799,-0.724679 0.3324,0.08171 1.16034,-0.889814 1.03556,-1.215099 -0.16786,-0.437389 0.10318,-0.750257 0.42125,-0.48629 0.20658,0.171455 0.3945,0.08768 0.8511,-0.379451 0.32233,-0.32971 0.72021,-0.59948 0.88424,-0.59948 0.16403,0 0.29822,-0.131248 0.29822,-0.291663 0,-0.160416 0.0927,-0.291671 0.20593,-0.291671 0.11325,0 0.15183,-0.0875 0.0858,-0.194443 -0.18953,-0.306648 0.4505,-0.226748 0.98404,0.122848 0.44786,0.293464 0.51062,0.293434 0.8353,-4.26e-4 0.19314,-0.17474 0.40964,-0.259188 0.48115,-0.187659 0.0713,0.07151 0.37201,-0.111898 0.66773,-0.40761 0.84228,-0.842317 2.53669,-1.663666 3.17055,-1.536901 0.39185,0.07838 0.71668,-0.02682 1.18651,-0.384248 0.35584,-0.270689 1.01881,-0.607836 1.47335,-0.74921 0.45446,-0.141375 0.82633,-0.366992 0.82633,-0.50137 0,-0.134378 0.0875,-0.24432 0.19446,-0.24432 0.10692,0 0.19849,-0.196875 0.20334,-0.437507 0.007,-0.283425 0.21122,-2.13e-4 0.58338,0.804197 0.68956,1.490682 0.70492,1.697023 0.13691,1.840727 -0.65054,0.164575 -0.9714,1.090774 -0.86903,2.508473 0.16175,2.239763 0.77437,3.584456 1.54177,3.383789 0.19122,-0.04997 0.40037,-0.0059 0.46468,0.09835 0.0647,0.1041 -0.061,0.235759 -0.27802,0.292574 -0.22157,0.05791 -0.35246,0.214153 -0.29808,0.35577 0.0529,0.138861 -0.14059,0.472657 -0.4308,0.741773 -0.42037,0.389745 -0.66179,0.467542 -1.18681,0.382351 -0.42463,-0.06893 -1.43469,0.10521 -2.83954,0.489501 -1.1993,0.328049 -2.8233,0.691153 -3.60877,0.806901 -2.10125,0.309617 -3.15989,0.827648 -3.81756,1.868096 -0.4211,0.666203 -0.66443,0.865025 -1.05864,0.865025 -0.28154,0 -0.72131,0.14668 -0.9772,0.325954 -0.25597,0.179281 -0.89093,0.393228 -1.41103,0.47545 -0.70397,0.111272 -1.17468,0.351051 -1.84139,0.937935 -0.49268,0.433648 -1.04908,0.788447 -1.23648,0.788447 -0.1874,0 -0.38679,0.120202 -0.44323,0.26711 -0.0566,0.146916 -0.41757,0.326234 -0.80274,0.39849 -0.38509,0.07224 -1.33026,0.433295 -2.10029,0.80233 -0.77004,0.369027 -1.66501,0.670685 -1.98889,0.670347 -1.01432,-7.35e-4 -3.35721,0.796245 -3.83564,1.305316 -0.41632,0.442938 -0.45638,0.696268 -0.57271,3.620508 -0.0691,1.729337 -0.23289,3.581742 -0.36459,4.116469 -0.14191,0.576 -0.2742,2.928537 -0.32461,5.772447 l -0.0852,4.80021 0.61924,2.00535 c 0.34056,1.10294 0.70206,2.4866 0.8034,3.0748 0.10135,0.58819 0.3213,1.5661 0.48886,2.17313 0.17035,0.61707 0.24443,1.30292 0.168,1.55556 -0.29572,0.97748 -0.54346,3.50034 -0.60755,6.18799 -0.0813,3.40832 -0.14286,3.7661 -0.81552,4.73675 -0.47843,0.69036 -0.53259,0.9502 -0.58896,2.82428 -0.0353,1.16397 -0.18064,2.36074 -0.33394,2.74453 -0.26751,0.66987 -0.94686,5.80357 -1.17086,8.84723 -0.19813,2.69269 -0.30447,3.67042 -0.48908,4.49756 -0.25663,1.14988 -0.2828,2.73537 -0.05,3.02905 0.10958,0.13815 0.38304,0.75022 0.60777,1.36016 0.37429,1.01574 0.38465,1.1663 0.12376,1.79085 -0.38693,0.92598 -0.0551,1.74519 0.65142,1.61006 0.40082,-0.0766 0.51723,0.024 0.76909,0.6652 0.16322,0.41551 0.37098,0.75548 0.46167,0.75548 0.46299,0 0.94274,0.82135 0.94274,1.61389 0,0.45986 0.10222,0.9383 0.22709,1.06321 0.17314,0.17315 0.16932,0.41994 -0.0162,1.03913 -0.35188,1.17451 -0.2994,2.44985 0.14272,3.46598 1.08906,2.50306 1.19709,3.96263 0.51238,6.92124 -0.17425,0.75285 -0.28603,2.5633 -0.31212,5.05556 l -0.0404,3.88268 0.61843,1.39907 c 0.34004,0.76949 0.61835,1.60892 0.61835,1.8654 0,0.25648 0.18145,0.98315 0.40324,1.61482 0.2218,0.63168 0.56361,1.71725 0.75968,2.41239 0.196,0.69514 0.54361,1.92014 0.77239,2.72222 0.22878,0.80209 0.70757,1.93959 1.064,2.52779 0.35636,0.58819 0.789,1.5614 0.96141,2.16267 0.17241,0.60127 0.68618,1.63506 1.14168,2.2973 0.77386,1.12518 1.61423,2.48899 2.52353,4.09559 0.21187,0.37432 0.57793,0.94306 0.81347,1.2639 1.13595,1.54704 1.23413,1.87572 1.38126,4.62395 l 0.14103,2.63211 -0.55721,0.69836 c -0.35114,0.44004 -0.72381,0.69836 -1.00756,0.69836 -0.24766,0 -0.64135,0.10262 -0.87498,0.22804 -0.499,0.2679 -1.04438,0.34234 -3.14695,0.42947 -1.38832,0.0575 -1.76452,-0.011 -3.49913,-0.63679 z M 66.780418,170.89986 c 0,-0.10695 -0.03895,-0.19444 -0.08576,-0.19444 -0.04703,0 -0.139853,0.0875 -0.205921,0.19444 -0.06614,0.10694 -0.02719,0.19445 0.08576,0.19445 0.113249,0 0.205921,-0.0875 0.205921,-0.19445 z m -2.527793,-10.8889 c 0,-0.10695 -0.03895,-0.19445 -0.08576,-0.19445 -0.04703,0 -0.13978,0.0875 -0.205922,0.19445 -0.06614,0.10694 -0.02719,0.19444 0.08576,0.19444 0.11325,0 0.205922,-0.0875 0.205922,-0.19444 z m 46.277825,-3.00242 c 0,-0.0472 -0.0875,-0.13983 -0.19439,-0.20592 -0.107,-0.0661 -0.19446,-0.0275 -0.19446,0.0858 0,0.11325 0.0875,0.20592 0.19446,0.20592 0.10693,0 0.19439,-0.0386 0.19439,-0.0857 z M 70.47488,141.9276 c 0,-0.10694 -0.09267,-0.19445 -0.205921,-0.19445 -0.11325,0 -0.151833,0.0875 -0.08576,0.19445 0.06614,0.10694 0.15874,0.19444 0.205921,0.19444 0.04703,0 0.08576,-0.0875 0.08576,-0.19444 z m 0.651277,-1.27012 c -0.09716,-0.25311 -0.45682,-0.41382 -0.45682,-0.20412 0,0.28888 0.262877,0.67712 0.400746,0.59189 0.09105,-0.0563 0.116263,-0.23078 0.05585,-0.38777 z m 1.036516,-0.82842 c 0.185417,-0.39651 0.58146,-1.06217 0.8802,-1.47926 0.298741,-0.41708 0.545817,-0.85459 0.549198,-0.97221 0.0073,-0.11764 0.221281,-0.65139 0.484305,-1.18611 0.602332,-1.22443 0.636946,-1.65899 0.09297,-1.16667 -0.213932,0.19357 -0.388914,0.29118 -0.388914,0.21692 0,-0.0743 -0.122509,-0.0222 -0.272137,0.11569 -0.199675,0.18388 -0.215916,0.31947 -0.061,0.5086 0.152273,0.18608 0.150215,0.29545 -0.0073,0.39284 -0.175497,0.10845 -0.558972,0.88948 -0.683025,1.39095 -0.01323,0.0535 -0.188871,0.27223 -0.390384,0.48611 -0.468137,0.49694 -0.919371,1.56402 -0.919371,2.17411 0,0.61821 0.294037,0.42059 0.715581,-0.48097 z M 62.170112,89.427525 c 0.0754,-0.288459 0.0073,-0.388892 -0.26905,-0.388892 -0.359885,0 -0.503339,0.385813 -0.24105,0.648153 0.229218,0.229167 0.405817,0.13939 0.5101,-0.259261 z m 7.581324,-3.04783 c 0.297197,-0.150495 0.619308,-0.224875 0.715728,-0.165281 0.09642,0.0596 0.230247,0.0194 0.297417,-0.08928 0.06688,-0.108693 0.620117,-0.198198 1.228695,-0.198903 0.723665,-7.35e-4 1.285062,-0.118585 1.622312,-0.340278 0.398762,-0.262134 0.905702,-0.335104 2.236108,-0.321838 0.946196,0.0094 1.894449,0.05321 2.107205,0.09722 0.261114,0.05402 0.449838,-0.0621 0.580799,-0.357431 0.227454,-0.512878 0.592557,-0.570466 0.765114,-0.120709 0.09583,0.249634 0.29514,0.293516 0.940243,0.206988 0.45028,-0.06041 0.849703,-0.202953 0.887698,-0.316798 0.03822,-0.113837 0.259349,-0.206987 0.492095,-0.206987 0.232746,0 0.536557,-0.181647 0.675235,-0.403671 0.192105,-0.307581 0.313733,-0.352492 0.511129,-0.188666 0.400158,0.332098 1.825662,0.02094 2.413148,-0.526761 0.635182,-0.592182 1.219361,-0.825347 2.06774,-0.825347 0.744978,0 1.849473,-0.804616 1.849473,-1.347339 0,-0.355747 0.967875,-0.647021 2.98476,-0.898206 0.518699,-0.0646 1.2187,-0.272717 1.555509,-0.462478 0.576389,-0.324668 0.612179,-0.41041 0.607108,-1.453915 -0.0073,-0.760278 -0.09539,-1.16575 -0.291685,-1.289714 -0.313513,-0.198022 -1.514722,-0.04696 -1.871814,0.235376 -0.123465,0.09761 -0.449103,0.121084 -0.723665,0.05218 -0.346583,-0.08698 -0.762395,0.02183 -1.359802,0.355696 -0.532295,0.297513 -0.95891,0.420199 -1.118459,0.321626 -0.339748,-0.209986 -0.553019,0.146783 -0.556767,0.931335 0,0.411697 -0.128389,0.692204 -0.370247,0.821651 -0.309397,0.165604 -0.401261,0.105437 -0.583371,-0.382043 -0.118835,-0.31823 -0.314174,-0.841103 -0.434037,-1.161935 -0.240242,-0.642722 -0.711686,-0.747476 -1.51847,-0.337412 -0.62989,0.320156 -0.836547,1.153933 -0.490993,1.980963 0.235465,0.563543 0.233922,0.682914 -0.01176,0.886697 -0.417429,0.346429 -0.863592,0.08818 -0.99661,-0.576852 -0.159255,-0.796193 -0.359739,-0.910523 -1.824413,-1.040338 -1.009912,-0.08951 -1.440201,-0.0355 -2.111469,0.265038 -0.463727,0.207605 -1.122279,0.377464 -1.463571,0.377464 -0.341219,0 -0.724253,0.103835 -0.851172,0.230754 -0.177995,0.178047 -0.33409,0.133636 -0.683319,-0.194442 -0.514583,-0.483416 -1.231046,-0.548213 -1.79406,-0.162246 -0.210919,0.144623 -0.77724,0.324044 -1.258532,0.398718 -0.481218,0.07467 -1.071497,0.264347 -1.311592,0.421514 -0.263686,0.172557 -0.630626,0.237089 -0.926206,0.162908 -0.269198,-0.06754 -0.604169,-0.02763 -0.744316,0.08867 -0.140221,0.116344 -0.562794,0.199947 -0.939141,0.185793 -0.833387,-0.03131 -1.10229,0.120032 -1.344369,0.756625 -0.1461,0.384248 -0.08084,0.711871 0.303664,1.524629 0.269345,0.569371 0.489744,1.116761 0.489744,1.216429 0,0.09967 -0.415591,0.295485 -0.923634,0.435147 -1.000799,0.275172 -1.207676,0.457797 -1.212306,1.070226 -0.0073,0.886073 1.022332,1.035032 2.384707,0.345231 z m -9.886587,-3.321194 c 0.09818,-0.314659 0.04704,-0.472929 -0.181302,-0.560545 -0.505103,-0.193818 -0.744242,0.211727 -0.594688,1.008685 0.123611,0.658986 0.156021,0.688727 0.387076,0.354799 0.138604,-0.200468 0.31366,-0.561786 0.388914,-0.802939 z M 53.363696,206.56899 c 0,-0.16673 0.08892,-0.24819 0.197617,-0.18101 0.108693,0.0672 0.147276,0.20359 0.08576,0.30315 -0.166678,0.26969 -0.283381,0.2194 -0.283381,-0.12214 z M 40.051477,104.36102 c -0.209963,-0.12175 -0.758058,-0.29169 -1.218112,-0.37763 -0.853597,-0.15947 -2.711888,-1.31501 -3.510514,-2.18291 -0.24399,-0.26517 -0.943991,-0.81359 -1.555582,-1.21868 -0.611518,-0.40511 -1.243172,-0.896324 -1.403603,-1.091605 -0.443812,-0.540319 -1.705577,-0.909347 -2.41425,-0.7061 -1.222081,0.350471 -1.409042,0.253676 -2.392571,-1.238506 -0.847276,-1.285356 -0.992788,-1.414994 -1.648842,-1.469502 -0.827434,-0.06871 -1.043865,-0.455894 -0.84566,-1.512686 0.125523,-0.669149 0.388473,-0.869552 0.551844,-0.420596 0.06688,0.184271 0.176745,0.190459 0.453659,0.02558 0.369365,-0.219892 0.415591,-0.647668 0.291538,-2.699204 -0.06541,-1.087482 0.181156,-2.446659 0.464022,-2.555228 0.130593,-0.05012 0.600935,0.0984 1.045261,0.329989 0.568673,0.296404 0.993892,0.386643 1.43616,0.30476 2.861589,-0.529789 2.88055,-0.529399 3.949622,0.08227 0.641062,0.366764 1.278301,0.574317 1.763268,0.574317 0.417722,0 0.953177,0.135715 1.190038,0.301584 0.635991,0.445444 3.698651,0.444731 4.378957,-7.34e-4 0.276473,-0.181134 0.967508,-0.452976 1.535666,-0.604103 1.462028,-0.388885 1.584685,-0.188747 1.436674,2.34522 -0.06247,1.06944 -0.162709,2.381943 -0.222898,2.916671 -0.06908,0.611407 0,1.369114 0.193281,2.041666 1.055403,3.728947 1.006532,3.315637 0.589397,4.988687 l -0.380095,1.52422 -1.166668,0.42644 c -1.318501,0.48193 -1.966764,0.53758 -2.520592,0.21636 z m 0.368925,-6.086261 c -0.109649,-2.978661 -0.344893,-4.200374 -0.767686,-3.986118 -0.10546,0.0535 -0.174468,0.272225 -0.153302,0.486113 0.02131,0.213888 0.125081,1.132642 0.230835,2.041665 0.105753,0.909032 0.197837,2.360073 0.204525,3.224551 0.0073,0.86446 0.07202,1.63141 0.14485,1.70432 0.350332,0.35039 0.445649,-0.62011 0.340778,-3.470531 z M 73.571126,71.899732 c -0.122656,-0.22916 -0.481365,-0.688537 -0.797156,-1.020833 -1.338196,-1.40816 -2.114848,-2.64 -2.552707,-4.048946 -0.189974,-0.61129 -0.429407,-1.163332 -0.532001,-1.226754 -0.102667,-0.06342 -0.186593,-0.335163 -0.186593,-0.603853 0,-0.421176 0.03821,-0.450595 0.275076,-0.213418 0.151318,0.151311 0.556988,0.391869 0.901513,0.534581 1.331729,0.551615 4.432311,-0.642289 6.322792,-2.434688 l 1.025418,-0.972226 0.09995,0.773058 c 0.05512,0.425182 0.02793,0.86268 -0.05953,0.972226 -0.08775,0.109538 -0.425439,1.117914 -0.750415,2.240834 -0.614091,2.12191 -1.256769,3.91295 -1.971027,5.493064 -0.359517,0.795458 -0.496211,0.923611 -0.984852,0.923611 -0.38105,0 -0.640693,-0.136876 -0.790394,-0.416656 z M 64.925067,33.864948 c 0.03748,-0.231033 0.203275,-0.324485 0.517523,-0.291083 0.315643,0.03359 0.381197,-0.0037 0.206142,-0.1171 -0.194751,-0.126221 -0.109134,-0.2904 0.355181,-0.681144 0.336589,-0.283167 0.78018,-0.514848 0.985881,-0.514848 0.205627,0 0.373922,-0.121318 0.373922,-0.269594 0,-0.267999 0.137648,-0.312858 2.088979,-0.680915 1.868654,-0.352462 4.45208,0.690506 4.275408,1.726059 -0.07129,0.415643 -0.623865,0.46494 -0.999697,0.08912 -0.540232,-0.540246 -4.317739,-0.679982 -4.70555,-0.174063 -0.118762,0.154889 -0.320641,0.281625 -0.448662,0.281625 -0.128095,0 -0.624673,0.218753 -1.10354,0.486113 -1.036369,0.578601 -1.624076,0.63405 -1.545587,0.145835 z m 67.990053,38.2105 c 1.08428,-0.694702 1.65832,-0.940786 2.19458,-0.940808 0.45719,-1.5e-5 1.06952,-0.208105 1.65281,-0.561618 0.50959,-0.308875 1.14117,-0.626672 1.40353,-0.706211 0.54986,-0.166685 0.98133,-0.549683 0.98133,-0.871088 0,-0.122222 0.12993,-0.35219 0.28882,-0.511041 0.25545,-0.255469 0.32527,-0.197727 0.60446,0.499996 0.33064,0.826398 0.45432,0.918996 0.78532,0.588008 0.29059,-0.29062 0.72389,-0.06379 1.10251,0.577197 0.39156,0.662852 0.40619,1.013977 0.0978,2.350203 -0.16955,0.734241 -0.34798,1.05023 -0.66017,1.168939 -0.23539,0.08948 -0.46887,0.277715 -0.51885,0.418303 -0.0669,0.187042 -0.21937,0.137774 -0.56955,-0.183653 -0.52605,-0.482836 -0.74138,-0.406927 -0.74138,0.261341 0,0.978164 0.42434,1.344644 0.86278,0.745073 0.17072,-0.233488 0.39906,-0.275231 0.94502,-0.172807 0.39597,0.07429 0.71992,0.217989 0.71992,0.31934 0,0.101359 0.0739,0.138648 0.16411,0.08288 0.24678,-0.152538 1.58593,0.261525 1.58593,0.490378 0,0.109553 0.12258,0.321751 0.27236,0.471547 0.72594,0.725922 0.87513,-1.338301 0.21305,-2.947481 -0.28103,-0.683061 -0.21474,-0.839626 0.51392,-1.214606 0.28228,-0.145262 0.6135,-0.484055 0.73594,-0.75287 0.21511,-0.472069 0.23576,-0.476949 0.60483,-0.142948 0.56088,0.507587 0.49922,1.063318 -0.11788,1.063318 -0.92172,0 -1.05555,0.355792 -1.05555,2.80556 0,1.890873 -0.0478,2.250008 -0.29779,2.250008 -0.16373,0 -0.3518,0.153126 -0.41787,0.340278 -0.0661,0.187152 -0.29727,0.537153 -0.51392,0.777777 -0.53501,0.594394 -2.04995,0.624268 -2.46488,0.04858 -0.36885,-0.511805 -0.68714,-0.493874 -0.72742,0.04101 -0.0529,0.705461 -0.79708,1.140763 -1.72424,1.008927 -0.59278,-0.08429 -1.28308,0.04152 -2.67595,0.487693 -1.03233,0.33071 -2.08538,0.601288 -2.34003,0.601288 z M 29.908555,98.542692 c -0.240977,0 -0.492242,0.0875 -0.558384,0.194442 -0.06614,0.106944 -0.296316,0.194442 -0.51157,0.194442 -0.460935,0 -1.912455,-0.816763 -2.39066,-1.345207 -0.263759,-0.291413 -0.454174,-0.33517 -0.900999,-0.207031 -0.382079,0.109582 -0.614825,0.08802 -0.714993,-0.06621 -0.19306,-0.297455 -0.194236,-3.427191 0,-3.308503 0.228704,0.140625 0.336736,-0.311998 0.398248,-1.668648 0.04924,-1.087371 0.114351,-1.274156 0.504221,-1.448094 0.35746,-0.159512 0.484893,-0.132909 0.633197,0.13221 0.102226,0.182544 0.493492,0.460479 0.869618,0.617632 0.376127,0.157153 0.636652,0.362171 0.578888,0.4556 -0.05806,0.09344 0.0169,0.33589 0.166531,0.538806 0.254278,0.345415 0.28,0.347237 0.403465,0.02866 0.07276,-0.187159 0.239066,-0.340285 0.369953,-0.340285 0.279854,0 0.562059,-0.551365 0.877114,-1.713756 0.140001,-0.51648 0.316379,-0.80089 0.458951,-0.740194 z M 70.894293,60.560303 c -0.427717,-0.223868 -0.837356,-0.499797 -0.910185,-0.613171 -0.07276,-0.113382 -0.597849,-0.478757 -1.166668,-0.81195 -0.784222,-0.459369 -1.049083,-0.731514 -1.09553,-1.12591 -0.05806,-0.490434 -0.02425,-0.513555 0.583298,-0.405185 0.354593,0.0632 0.973828,0.197081 1.376191,0.297477 0.839707,0.20953 2.793316,-0.07944 3.732456,-0.552079 0.833461,-0.419449 2.573505,-2.31905 2.694325,-2.941415 0.05585,-0.286431 0.331003,-1.177031 0.611958,-1.979118 0.2922,-0.834033 0.469093,-1.679987 0.41324,-1.976097 -0.06026,-0.321905 0.01176,-0.608314 0.190856,-0.757126 0.158667,-0.131644 0.55221,-0.809282 0.874615,-1.50585 0.582416,-1.258238 0.584106,-1.272319 0.268389,-2.159553 -0.174835,-0.491177 -0.385754,-1.529831 -0.468725,-2.308115 -0.09076,-0.851583 -0.276987,-1.554531 -0.46777,-1.76531 -0.34989,-0.386658 -0.438006,-1.874651 -0.122509,-2.06963 0.297418,-0.18383 0.234142,-0.881112 -0.204525,-2.252614 -0.525019,-1.641574 -1.533756,-2.62963 -2.862178,-2.80348 -0.505691,-0.06621 -1.27029,-0.245474 -1.699183,-0.398438 -0.538395,-0.192032 -1.350763,-0.255322 -2.624949,-0.204496 -1.624517,0.06482 -2.026879,0.15766 -3.363018,0.776035 -0.834783,0.386334 -1.650385,0.702426 -1.81258,0.702426 -0.543612,0 -1.914879,0.954397 -2.396098,1.667604 -0.41221,0.610952 -0.474824,0.919511 -0.464609,2.29008 0.0073,0.871198 0.111412,1.830314 0.233334,2.131376 0.121847,0.301056 0.221575,1.017769 0.221575,1.592688 0,0.574927 0.08745,1.099395 0.194383,1.165493 0.278384,0.172027 0.239948,0.932974 -0.06835,1.354695 -0.255381,0.349302 -0.277208,0.348971 -0.764453,-0.01147 -0.275885,-0.204062 -0.592337,-0.566181 -0.703382,-0.804696 -0.117952,-0.2535 -0.314835,-0.390296 -0.473869,-0.329284 -0.162488,0.06239 -0.312336,-0.04983 -0.372158,-0.278729 -0.06908,-0.264038 0.01396,-0.412886 0.266111,-0.478903 0.326667,-0.08542 0.366278,-0.29766 0.366278,-1.961216 0,-1.860165 0,-1.865427 -0.486142,-1.865427 -0.438741,0 -0.486069,-0.07697 -0.486069,-0.790005 0,-0.635939 0.06614,-0.783252 0.340263,-0.755384 0.625261,0.06364 0.762542,-0.0073 0.992054,-0.510857 0.274488,-0.602354 0.1181,-0.929139 -0.382079,-0.798347 -0.201807,0.05277 -0.366941,0.05688 -0.366941,0.0092 0,-0.257423 0.867561,-1.74693 1.094795,-1.879552 0.146467,-0.08552 0.266331,-0.282396 0.266331,-0.437499 0,-0.155102 0.08753,-0.282006 0.194457,-0.282006 0.106929,0 0.194457,-0.157499 0.194457,-0.350001 0,-0.475831 0.376567,-0.816668 0.902395,-0.816668 0.239654,0 0.489817,-0.0875 0.555885,-0.194442 0.06614,-0.106944 0.377523,-0.194442 0.692064,-0.194442 0.314541,0 0.572568,-0.06563 0.573376,-0.145836 0,-0.217408 0.983309,-0.631948 1.495614,-0.631948 0.304105,0 0.447339,-0.114102 0.447339,-0.356482 0,-0.483115 0.205554,-0.654143 0.496211,-0.412894 0.167118,0.138662 0.322992,0.123332 0.511496,-0.05027 0.692432,-0.637718 1.71447,-0.960497 1.71447,-0.541437 0,0.107811 0.51473,0.19445 1.155204,0.19445 0.635402,0 1.209293,0.0875 1.275361,0.194442 0.06614,0.106944 0.495476,0.194442 0.954059,0.194442 0.716169,0 0.968464,0.122936 1.787152,0.870713 0.524285,0.478896 1.015865,0.872646 1.092296,0.875005 0.278457,0.0086 1.513766,1.218648 1.513766,1.482767 0,0.149334 0.08745,0.27152 0.194457,0.27152 0.106929,0 0.194383,0.208038 0.194383,0.462302 0,0.254271 0.129491,0.569724 0.287644,0.701023 0.460347,0.382035 0.879025,1.370363 0.879025,2.074891 0,0.357871 0.08753,0.650681 0.194457,0.650681 0.106929,0 0.194457,0.46375 0.194457,1.030556 0,0.566806 0.09642,1.127005 0.214299,1.244877 0.117879,0.117879 0.227307,0.725194 0.243108,1.349587 0.02793,1.09999 0.04703,1.138544 0.612032,1.240975 0.444548,0.08055 0.568969,0.196684 0.52289,0.487921 -0.03307,0.210206 -0.109649,0.841574 -0.169911,1.403037 -0.06026,0.561456 -0.186153,1.020833 -0.279854,1.020833 -0.0937,0 -0.170353,-0.0875 -0.170353,-0.194442 0,-0.455548 -0.537219,-0.140037 -0.838972,0.492705 -0.387959,0.813559 -0.421838,2.132133 -0.07202,2.81285 0.211434,0.411851 0.198793,0.575228 -0.08319,1.069448 -0.183066,0.320839 -0.428158,1.214106 -0.544641,1.985055 -0.116557,0.770942 -0.310059,1.645947 -0.429996,1.944445 -0.12001,0.298506 -0.281984,0.717727 -0.359958,0.931622 -0.469975,1.289141 -1.057535,2.313326 -1.925021,3.35575 -0.836841,1.005547 -1.142564,1.228746 -2.040843,1.489881 -1.39596,0.405832 -2.193263,0.376061 -3.135564,-0.117063 z m -6.284356,-5.313378 c -0.233186,-0.268176 -0.423969,-0.648367 -0.423969,-0.844867 0,-0.349493 -0.561764,-1.00088 -0.86315,-1.00088 -0.204085,0 -1.699992,-1.565297 -2.004906,-2.097916 -0.13368,-0.233524 -0.243035,-0.557031 -0.243035,-0.718895 0,-0.161871 -0.08753,-0.294309 -0.194457,-0.294309 -0.106929,0 -0.194824,-0.109369 -0.195338,-0.243057 -5.15e-4,-0.13368 -0.241124,-0.505551 -0.53472,-0.82639 -0.293597,-0.320832 -0.657965,-0.823958 -0.809723,-1.118054 -0.151759,-0.294096 -0.348641,-0.53472 -0.437492,-0.53472 -0.252368,0 -0.189533,-1.838743 0.07202,-2.100003 0.350846,-0.350927 1.196579,-0.304275 1.057461,0.05835 -0.169764,0.442328 0.06761,0.874998 0.479969,0.874998 0.445282,0 0.490993,0.494579 0.061,0.659596 -0.490332,0.188151 -0.08892,1.693223 1.055476,3.957787 0.496872,0.983191 0.544789,1.020179 1.321147,1.020833 0.852568,7.2e-4 1.04166,0.197852 1.04166,1.086034 0,0.258615 0.186887,0.657104 0.415297,0.885536 0.323507,0.323485 0.866678,1.723561 0.668694,1.723561 -0.02278,0 -0.232452,-0.219415 -0.465639,-0.487591 z m 7.213281,-2.402301 c -0.381859,-0.249149 -0.384063,-0.717492 -0.0073,-1.134075 0.451749,-0.496931 0.340851,-1.361294 -0.200116,-1.559999 -0.183948,-0.06754 -0.638783,-0.370071 -1.01072,-0.672229 -0.371938,-0.302158 -0.879613,-0.549374 -1.128233,-0.549374 -0.32821,0 -0.508043,-0.161136 -0.657156,-0.588912 L 68.614311,47.751123 68.226793,48.1942 c -0.607917,0.695055 -1.208705,2.091052 -0.992789,2.306924 0.120084,0.120084 0.626069,0.07487 1.41007,-0.125993 1.330847,-0.340946 1.765326,-0.209163 1.409115,0.427394 -0.232158,0.414827 0.263759,1.431985 0.698164,1.431985 0.143675,0 0.217092,0.07129 0.163297,0.158432 -0.185712,0.300431 -2.891427,-0.122032 -3.456278,-0.539659 -0.294993,-0.218106 -0.761439,-0.396557 -1.036442,-0.396557 -0.635623,0 -0.796862,-0.419339 -0.468652,-1.218766 0.299622,-0.729743 0.371056,-0.82606 1.537209,-2.073561 0.723592,-0.774021 0.91849,-0.891408 1.120663,-0.67494 0.15198,0.16265 0.456159,0.219782 0.801933,0.150619 0.315938,-0.0632 0.614384,-0.01874 0.689419,0.102608 0.253176,0.409653 0.847497,0.209692 1.386626,-0.46652 0.298447,-0.374304 0.64356,-0.680555 0.766878,-0.680555 0.123391,0 0.224294,-0.129859 0.224294,-0.288577 0,-0.20332 -0.06908,-0.231041 -0.234656,-0.09383 -0.389282,0.323066 -0.870647,-0.665063 -1.000285,-2.053197 -0.0826,-0.884095 -0.05144,-1.258848 0.105018,-1.258848 0.122363,0 0.212169,-0.06563 0.199528,-0.145835 -0.130593,-0.82678 0.736967,-1.382107 2.248455,-1.439276 0.813691,-0.03079 2.764581,0.745889 3.204204,1.275634 0.497901,0.599855 -1.000285,2.207513 -2.160339,2.318278 -0.707791,0.06754 -1.29344,0.477566 -1.640244,1.148163 -0.306971,0.593565 -0.303223,0.628407 0.09524,0.892959 0.705513,0.468461 0.523035,1.111543 -0.546552,1.926293 -0.52862,0.402671 -0.966111,0.788447 -0.972211,0.857286 -0.0073,0.06886 0.347686,0.0341 0.786132,-0.07721 0.63555,-0.16132 0.833534,-0.147268 0.97618,0.0693 0.271255,0.411843 0.925398,-0.443826 0.808106,-1.057159 -0.149554,-0.782715 0.251192,-0.755678 0.994553,0.0671 0.827728,0.916241 0.858153,1.144173 0.231276,1.733144 -0.258835,0.2431 -0.571465,0.673978 -0.69493,0.957513 -0.123465,0.283528 -0.458584,0.69906 -0.744831,0.923399 -0.527738,0.413687 -1.966029,0.720718 -2.313641,0.493903 z m -5.401362,-7.416101 c -0.06761,-0.109949 -0.439696,-0.143814 -0.853083,-0.07772 -0.71389,0.114161 -1.382805,-0.227991 -1.382805,-0.70735 0,-0.197492 1.830512,-2.131185 2.017473,-2.131185 0.06688,0 0.121407,0.268587 0.121407,0.596856 0,0.507749 0.06541,0.587582 0.437565,0.534727 0.387077,-0.05497 0.430363,-0.157344 0.375759,-0.888527 -0.05953,-0.797193 -0.04189,-0.826391 0.504589,-0.826391 0.319318,0 0.71977,0.169573 0.918195,0.388892 0.193575,0.213888 0.46799,0.388885 0.609828,0.388885 0.250604,0 0.32167,0.198168 0.537512,1.498391 0.08738,0.5266 0.01543,0.686185 -0.464683,1.027896 -0.483717,0.344474 -0.627098,0.36766 -0.965597,0.156234 -0.317628,-0.19833 -0.475266,-0.199755 -0.783854,-0.0073 -0.466741,0.291509 -0.909009,0.310624 -1.072306,0.04637 z" />
  </g>
</svg>
