<?xml version="1.0" standalone="no"?>
<!DOCTYPE svg PUBLIC "-//W3C//DTD SVG 1.1//EN" "http://www.w3.org/Graphics/SVG/1.1/DTD/svg11.dtd">
<svg width="132mm" height="38mm" viewBox="0 -20 132 38" xmlns="http://www.w3.org/2000/svg" version="1.1">
<title>OpenSCAD Model</title>
<path d="
M 16,3 L 12,3 L 12,-0 L 22,-0 L 22,3 L 18,3
 L 18,18 L 28,18 L 28,3 L 24,3 L 24,-0 L 34,-0
 L 34,3 L 30,3 L 30,18 L 40,18 L 40,3 L 36,3
 L 36,-0 L 46,-0 L 46,3 L 42,3 L 42,18 L 52,18
 L 52,3 L 48,3 L 48,-0 L 58,-0 L 58,3 L 54,3
 L 54,18 L 64,18 L 64,3 L 60,3 L 60,-0 L 70,-0
 L 70,3 L 66,3 L 66,18 L 76,18 L 76,3 L 72,3
 L 72,-0 L 82,-0 L 82,3 L 78,3 L 78,18 L 88,18
 L 88,3 L 84,3 L 84,-0 L 94,-0 L 94,3 L 90,3
 L 90,18 L 100,18 L 100,3 L 96,3 L 96,-0 L 106,-0
 L 106,3 L 102,3 L 102,18 L 112,18 L 112,3 L 108,3
 L 108,-0 L 118,-0 L 118,3 L 114,3 L 114,18 L 124,18
 L 124,3 L 120,3 L 120,-0 L 132,-0 L 132,-20 L 123.05,-20
 L 123.05,-10 L 120,-10 L 120,-20 L 111,-20 L 111,-10 L 108,-10
 L 108,-20 L 98.95,-20 L 98.95,-10 L 96,-10 L 96,-20 L 86.9,-20
 L 86.9,-10 L 84,-10 L 84,-20 L 74.85,-20 L 74.85,-10 L 72,-10
 L 72,-20 L 62.8,-20 L 62.8,-10 L 60,-10 L 60,-20 L 50.75,-20
 L 50.75,-10 L 48,-10 L 48,-20 L 38.7,-20 L 38.7,-10 L 36,-10
 L 36,-20 L 26.65,-20 L 26.65,-10 L 24,-10 L 24,-20 L 14.6,-20
 L 14.6,-10 L 12,-10 L 12,-20 L 0,-20 L 0,-0 L 10,-0
 L 10,3 L 6,3 L 6,18 L 16,18 z
M 120.77,-5.00839 L 120.467,-5.15564 L 120.26,-5.39899 L 120.159,-5.73643 L 120.537,-5.77103 L 120.73,-5.38959
 L 121.162,-5.26244 L 121.409,-5.29651 L 121.596,-5.39873 L 121.714,-5.5681 L 121.754,-5.80357 L 121.709,-6.01183
 L 121.574,-6.16873 L 121.354,-6.26715 L 121.054,-6.29996 L 120.846,-6.29996 L 120.846,-6.61732 L 121.046,-6.61732
 L 121.313,-6.65013 L 121.513,-6.74854 L 121.637,-6.90494 L 121.678,-7.11166 L 121.645,-7.3174 L 121.543,-7.47481
 L 121.375,-7.57475 L 121.141,-7.60808 L 120.922,-7.57704 L 120.75,-7.48396 L 120.631,-7.33444 L 120.576,-7.13405
 L 120.208,-7.16254 L 120.301,-7.47583 L 120.499,-7.71181 L 120.787,-7.85982 L 121.145,-7.90915 L 121.529,-7.85905
 L 121.816,-7.70876 L 121.995,-7.46896 L 122.055,-7.15033 L 122.016,-6.90137 L 121.901,-6.70378 L 121.713,-6.5596
 L 121.455,-6.47083 L 121.455,-6.46271 L 121.74,-6.39149 L 121.955,-6.24706 L 122.089,-6.04262 L 122.134,-5.79137
 L 122.071,-5.43942 L 121.882,-5.17699 L 121.576,-5.01373 L 121.162,-4.95932 z
M 12.2095,-5 L 12.2095,-5.25835 L 12.3247,-5.48239 L 12.4628,-5.67844 L 12.6161,-5.85188 L 12.7771,-6.00803
 L 12.9411,-6.15019 L 13.1036,-6.28165 L 13.2575,-6.40778 L 13.3956,-6.53389 L 13.5133,-6.66309 L 13.6061,-6.79837
 L 13.6664,-6.94588 L 13.6865,-7.11166 L 13.6519,-7.32121 L 13.5481,-7.47787 L 13.3829,-7.57552 L 13.1637,-7.60808
 L 12.9503,-7.57628 L 12.7781,-7.4809 L 12.6579,-7.32808 L 12.6001,-7.12387 L 12.2258,-7.15846 L 12.3191,-7.46716
 L 12.5177,-7.70569 L 12.8048,-7.85829 L 13.1637,-7.90915 L 13.5469,-7.85805 L 13.8299,-7.7047 L 14.0046,-7.45728
 L 14.0629,-7.12387 L 14.0438,-6.95758 L 13.9866,-6.79228 L 13.8917,-6.62749 L 13.7597,-6.46271 L 13.5405,-6.25266
 L 13.184,-5.95207 L 12.9739,-5.77026 L 12.8117,-5.60725 L 12.6927,-5.45645 L 12.6124,-5.31125 L 14.1076,-5.31125
 L 14.1076,-5 z
M 124.114,-5.05341 L 123.804,-5.33566 L 123.618,-5.79848 L 123.556,-6.43423 L 123.617,-7.08015 L 123.797,-7.54094
 L 124.108,-7.81709 L 124.559,-7.90915 L 124.999,-7.81607 L 125.307,-7.53685 L 125.488,-7.07506 L 125.548,-6.43423
 L 125.485,-5.80103 L 125.295,-5.33771 L 124.981,-5.05391 L 124.547,-4.95932 z
M 124.831,-5.33057 L 125.025,-5.54723 L 125.138,-5.91342 L 125.176,-6.43423 L 125.14,-6.96927 L 125.032,-7.33342
 L 124.842,-7.54245 L 124.559,-7.61212 L 124.269,-7.54346 L 124.074,-7.33748 L 123.963,-6.97435 L 123.926,-6.43423
 L 123.964,-5.90579 L 124.076,-5.54114 L 124.27,-5.32904 L 124.551,-5.25835 z
M 60.2095,-5 L 60.2095,-5.25835 L 60.3247,-5.48239 L 60.4628,-5.67844 L 60.6161,-5.85188 L 60.7771,-6.00803
 L 60.9411,-6.15019 L 61.1036,-6.28165 L 61.2575,-6.40778 L 61.3956,-6.53389 L 61.5133,-6.66309 L 61.6061,-6.79837
 L 61.6664,-6.94588 L 61.6865,-7.11166 L 61.6519,-7.32121 L 61.5481,-7.47787 L 61.3829,-7.57552 L 61.1637,-7.60808
 L 60.9503,-7.57628 L 60.7781,-7.4809 L 60.6579,-7.32808 L 60.6001,-7.12387 L 60.2258,-7.15846 L 60.3191,-7.46716
 L 60.5177,-7.70569 L 60.8048,-7.85829 L 61.1637,-7.90915 L 61.5469,-7.85805 L 61.8299,-7.7047 L 62.0046,-7.45728
 L 62.0629,-7.12387 L 62.0438,-6.95758 L 61.9866,-6.79228 L 61.8917,-6.62749 L 61.7597,-6.46271 L 61.5405,-6.25266
 L 61.184,-5.95207 L 60.9739,-5.77026 L 60.8117,-5.60725 L 60.6927,-5.45645 L 60.6124,-5.31125 L 62.1076,-5.31125
 L 62.1076,-5 z
M 64.1434,-5.01373 L 63.8339,-5.17699 L 63.6394,-5.44044 L 63.5745,-5.79544 L 63.6147,-6.0538 L 63.7352,-6.2674
 L 63.9184,-6.42101 L 64.1462,-6.49933 L 64.1462,-6.50746 L 63.9369,-6.59444 L 63.7769,-6.74548 L 63.6755,-6.94435
 L 63.6417,-7.17476 L 63.703,-7.47124 L 63.8868,-7.70569 L 64.1739,-7.85829 L 64.5449,-7.90915 L 64.9236,-7.85931
 L 65.2132,-7.70978 L 65.3971,-7.47533 L 65.4584,-7.17067 L 65.4243,-6.94028 L 65.3221,-6.74141 L 65.1608,-6.59239
 L 64.9498,-6.51154 L 64.9498,-6.50339 L 65.1939,-6.42279 L 65.377,-6.27046 L 65.4914,-6.05862 L 65.5296,-5.7995
 L 65.4665,-5.44653 L 65.2773,-5.18105 L 64.9701,-5.01474 L 64.5531,-4.95932 z
M 64.7766,-6.67555 L 64.9426,-6.7648 L 65.0441,-6.92068 L 65.0779,-7.15033 L 64.9447,-7.51498 L 64.5449,-7.63654
 L 64.3173,-7.60602 L 64.1513,-7.51447 L 64.0498,-7.36241 L 64.016,-7.15033 L 64.0508,-6.93341 L 64.1554,-6.77498
 L 64.3235,-6.67809 L 64.549,-6.6458 z
M 64.818,-5.26979 L 65.0027,-5.37737 L 65.1125,-5.56326 L 65.1491,-5.83408 L 65.1095,-6.06779 L 64.9904,-6.23587
 L 64.7997,-6.33734 L 64.5449,-6.37117 L 64.2968,-6.33481 L 64.1096,-6.22571 L 63.9921,-6.05302 L 63.9529,-5.82596
 L 64.104,-5.38194 L 64.5571,-5.23393 z
M 76.1434,-5.01373 L 75.8339,-5.17699 L 75.6394,-5.44044 L 75.5745,-5.79544 L 75.6147,-6.0538 L 75.7352,-6.2674
 L 75.9184,-6.42101 L 76.1462,-6.49933 L 76.1462,-6.50746 L 75.9369,-6.59444 L 75.7769,-6.74548 L 75.6755,-6.94435
 L 75.6417,-7.17476 L 75.703,-7.47124 L 75.8868,-7.70569 L 76.1739,-7.85829 L 76.5449,-7.90915 L 76.9236,-7.85931
 L 77.2132,-7.70978 L 77.3971,-7.47533 L 77.4584,-7.17067 L 77.4243,-6.94028 L 77.3221,-6.74141 L 77.1608,-6.59239
 L 76.9498,-6.51154 L 76.9498,-6.50339 L 77.1939,-6.42279 L 77.377,-6.27046 L 77.4914,-6.05862 L 77.5296,-5.7995
 L 77.4665,-5.44653 L 77.2773,-5.18105 L 76.9701,-5.01474 L 76.5531,-4.95932 z
M 76.7766,-6.67555 L 76.9426,-6.7648 L 77.0441,-6.92068 L 77.0779,-7.15033 L 76.9447,-7.51498 L 76.5449,-7.63654
 L 76.3173,-7.60602 L 76.1513,-7.51447 L 76.0498,-7.36241 L 76.016,-7.15033 L 76.0508,-6.93341 L 76.1554,-6.77498
 L 76.3235,-6.67809 L 76.549,-6.6458 z
M 76.818,-5.26979 L 77.0027,-5.37737 L 77.1125,-5.56326 L 77.1491,-5.83408 L 77.1095,-6.06779 L 76.9904,-6.23587
 L 76.7997,-6.33734 L 76.5449,-6.37117 L 76.2968,-6.33481 L 76.1096,-6.22571 L 75.9921,-6.05302 L 75.9529,-5.82596
 L 76.104,-5.38194 L 76.5571,-5.23393 z
M 24.2095,-5 L 24.2095,-5.25835 L 24.3247,-5.48239 L 24.4628,-5.67844 L 24.6161,-5.85188 L 24.7771,-6.00803
 L 24.9411,-6.15019 L 25.1036,-6.28165 L 25.2575,-6.40778 L 25.3956,-6.53389 L 25.5133,-6.66309 L 25.6061,-6.79837
 L 25.6664,-6.94588 L 25.6865,-7.11166 L 25.6519,-7.32121 L 25.5481,-7.47787 L 25.3829,-7.57552 L 25.1637,-7.60808
 L 24.9503,-7.57628 L 24.7781,-7.4809 L 24.6579,-7.32808 L 24.6001,-7.12387 L 24.2258,-7.15846 L 24.3191,-7.46716
 L 24.5177,-7.70569 L 24.8048,-7.85829 L 25.1637,-7.90915 L 25.5469,-7.85805 L 25.8299,-7.7047 L 26.0046,-7.45728
 L 26.0629,-7.12387 L 26.0438,-6.95758 L 25.9866,-6.79228 L 25.8917,-6.62749 L 25.7597,-6.46271 L 25.5405,-6.25266
 L 25.184,-5.95207 L 24.9739,-5.77026 L 24.8117,-5.60725 L 24.6927,-5.45645 L 24.6124,-5.31125 L 26.1076,-5.31125
 L 26.1076,-5 z
M 88.1734,-4.99467 L 87.9377,-5.10071 L 87.764,-5.28558 L 87.6478,-5.55742 L 87.9977,-5.61235 L 88.1737,-5.34381
 L 88.4819,-5.2543 L 88.7616,-5.32755 L 88.9701,-5.54726 L 89.1019,-5.90276 L 89.1512,-6.38338 L 89.0408,-6.21832
 L 88.8725,-6.08939 L 88.6655,-6.00624 L 88.4392,-5.97853 L 88.0913,-6.04465 L 87.8207,-6.24298 L 87.6468,-6.55069
 L 87.5888,-6.94487 L 87.6518,-7.34639 L 87.841,-7.65178 L 88.1426,-7.8448 L 88.5429,-7.90915 L 88.963,-7.82065
 L 89.2671,-7.55515 L 89.4518,-7.11218 L 89.5133,-6.4912 L 89.4459,-5.83817 L 89.2437,-5.356 L 88.917,-5.05849
 L 88.4758,-4.95932 z
M 88.6797,-6.28546 L 88.8216,-6.33961 L 88.9434,-6.42685 L 89.0362,-6.5441 L 89.095,-6.68549 L 89.1145,-6.84517
 L 89.0749,-7.15718 L 88.9559,-7.40155 L 88.7702,-7.55948 L 88.5307,-7.61212 L 88.2942,-7.56711 L 88.1137,-7.43207
 L 87.9992,-7.22025 L 87.9611,-6.94487 L 87.9992,-6.66437 L 88.1137,-6.44948 L 88.2932,-6.31293 L 88.5266,-6.2674
 z
M 84.2095,-5 L 84.2095,-5.25835 L 84.3247,-5.48239 L 84.4628,-5.67844 L 84.6161,-5.85188 L 84.7771,-6.00803
 L 84.9411,-6.15019 L 85.1036,-6.28165 L 85.2575,-6.40778 L 85.3956,-6.53389 L 85.5133,-6.66309 L 85.6061,-6.79837
 L 85.6664,-6.94588 L 85.6865,-7.11166 L 85.6519,-7.32121 L 85.5481,-7.47787 L 85.3829,-7.57552 L 85.1637,-7.60808
 L 84.9503,-7.57628 L 84.7781,-7.4809 L 84.6579,-7.32808 L 84.6001,-7.12387 L 84.2258,-7.15846 L 84.3191,-7.46716
 L 84.5177,-7.70569 L 84.8048,-7.85829 L 85.1637,-7.90915 L 85.5469,-7.85805 L 85.8299,-7.7047 L 86.0046,-7.45728
 L 86.0629,-7.12387 L 86.0438,-6.95758 L 85.9866,-6.79228 L 85.8917,-6.62749 L 85.7597,-6.46271 L 85.5405,-6.25266
 L 85.184,-5.95207 L 84.9739,-5.77026 L 84.8117,-5.60725 L 84.6927,-5.45645 L 84.6124,-5.31125 L 86.1076,-5.31125
 L 86.1076,-5 z
M 16.1747,-5.04933 L 15.8614,-5.31937 L 15.6691,-5.76135 L 15.6051,-6.3671 L 15.6717,-7.02521 L 15.8716,-7.51039
 L 16.1945,-7.80946 L 16.6304,-7.90915 L 17.1593,-7.76318 L 17.4482,-7.32529 L 17.0983,-7.26224 L 16.9264,-7.52464
 L 16.6263,-7.61212 L 16.3484,-7.53914 L 16.1411,-7.32019 L 16.0122,-6.96291 L 15.9692,-6.47491 L 16.0892,-6.63792
 L 16.25,-6.75667 L 16.4442,-6.82915 L 16.665,-6.8533 L 17.0207,-6.79126 L 17.2946,-6.60512 L 17.4693,-6.31421
 L 17.5275,-5.93785 L 17.466,-5.53198 L 17.2814,-5.22173 L 16.9884,-5.02492 L 16.6019,-4.95932 z
M 16.8257,-5.2988 L 17.0047,-5.4323 L 17.1176,-5.64362 L 17.1553,-5.92157 L 17.1171,-6.1972 L 17.0027,-6.40166
 L 16.8201,-6.52831 L 16.5775,-6.57053 L 16.3458,-6.53314 L 16.1635,-6.42101 L 16.0453,-6.24326 L 16.0058,-6.00905
 L 16.0468,-5.70746 L 16.1696,-5.46587 L 16.3565,-5.30719 L 16.5897,-5.2543 z
M 96.2095,-5 L 96.2095,-5.25835 L 96.3247,-5.48239 L 96.4628,-5.67844 L 96.6161,-5.85188 L 96.7771,-6.00803
 L 96.9411,-6.15019 L 97.1036,-6.28165 L 97.2575,-6.40778 L 97.3956,-6.53389 L 97.5133,-6.66309 L 97.6061,-6.79837
 L 97.6664,-6.94588 L 97.6865,-7.11166 L 97.6519,-7.32121 L 97.5481,-7.47787 L 97.3829,-7.57552 L 97.1637,-7.60808
 L 96.9503,-7.57628 L 96.7781,-7.4809 L 96.6579,-7.32808 L 96.6001,-7.12387 L 96.2258,-7.15846 L 96.3191,-7.46716
 L 96.5177,-7.70569 L 96.8048,-7.85829 L 97.1637,-7.90915 L 97.5469,-7.85805 L 97.8299,-7.7047 L 98.0046,-7.45728
 L 98.0629,-7.12387 L 98.0438,-6.95758 L 97.9866,-6.79228 L 97.8917,-6.62749 L 97.7597,-6.46271 L 97.5405,-6.25266
 L 97.184,-5.95207 L 96.9739,-5.77026 L 96.8117,-5.60725 L 96.6927,-5.45645 L 96.6124,-5.31125 L 98.1076,-5.31125
 L 98.1076,-5 z
M 72.2095,-5 L 72.2095,-5.25835 L 72.3247,-5.48239 L 72.4628,-5.67844 L 72.6161,-5.85188 L 72.7771,-6.00803
 L 72.9411,-6.15019 L 73.1036,-6.28165 L 73.2575,-6.40778 L 73.3956,-6.53389 L 73.5133,-6.66309 L 73.6061,-6.79837
 L 73.6664,-6.94588 L 73.6865,-7.11166 L 73.6519,-7.32121 L 73.5481,-7.47787 L 73.3829,-7.57552 L 73.1637,-7.60808
 L 72.9503,-7.57628 L 72.7781,-7.4809 L 72.6579,-7.32808 L 72.6001,-7.12387 L 72.2258,-7.15846 L 72.3191,-7.46716
 L 72.5177,-7.70569 L 72.8048,-7.85829 L 73.1637,-7.90915 L 73.5469,-7.85805 L 73.8299,-7.7047 L 74.0046,-7.45728
 L 74.0629,-7.12387 L 74.0438,-6.95758 L 73.9866,-6.79228 L 73.8917,-6.62749 L 73.7597,-6.46271 L 73.5405,-6.25266
 L 73.184,-5.95207 L 72.9739,-5.77026 L 72.8117,-5.60725 L 72.6927,-5.45645 L 72.6124,-5.31125 L 74.1076,-5.31125
 L 74.1076,-5 z
M 28.1747,-5.04933 L 27.8614,-5.31937 L 27.6691,-5.76135 L 27.6051,-6.3671 L 27.6717,-7.02521 L 27.8716,-7.51039
 L 28.1945,-7.80946 L 28.6304,-7.90915 L 29.1593,-7.76318 L 29.4482,-7.32529 L 29.0983,-7.26224 L 28.9264,-7.52464
 L 28.6263,-7.61212 L 28.3484,-7.53914 L 28.1411,-7.32019 L 28.0122,-6.96291 L 27.9692,-6.47491 L 28.0892,-6.63792
 L 28.25,-6.75667 L 28.4442,-6.82915 L 28.665,-6.8533 L 29.0207,-6.79126 L 29.2946,-6.60512 L 29.4693,-6.31421
 L 29.5275,-5.93785 L 29.466,-5.53198 L 29.2814,-5.22173 L 28.9884,-5.02492 L 28.6019,-4.95932 z
M 28.8257,-5.2988 L 29.0047,-5.4323 L 29.1176,-5.64362 L 29.1553,-5.92157 L 29.1171,-6.1972 L 29.0027,-6.40166
 L 28.8201,-6.52831 L 28.5775,-6.57053 L 28.3458,-6.53314 L 28.1635,-6.42101 L 28.0453,-6.24326 L 28.0058,-6.00905
 L 28.0468,-5.70746 L 28.1696,-5.46587 L 28.3565,-5.30719 L 28.5897,-5.2543 z
M 108.77,-5.00839 L 108.467,-5.15564 L 108.26,-5.39899 L 108.159,-5.73643 L 108.537,-5.77103 L 108.73,-5.38959
 L 109.162,-5.26244 L 109.409,-5.29651 L 109.596,-5.39873 L 109.714,-5.5681 L 109.754,-5.80357 L 109.709,-6.01183
 L 109.574,-6.16873 L 109.354,-6.26715 L 109.054,-6.29996 L 108.846,-6.29996 L 108.846,-6.61732 L 109.046,-6.61732
 L 109.313,-6.65013 L 109.513,-6.74854 L 109.637,-6.90494 L 109.678,-7.11166 L 109.645,-7.3174 L 109.543,-7.47481
 L 109.375,-7.57475 L 109.141,-7.60808 L 108.922,-7.57704 L 108.75,-7.48396 L 108.631,-7.33444 L 108.576,-7.13405
 L 108.208,-7.16254 L 108.301,-7.47583 L 108.499,-7.71181 L 108.787,-7.85982 L 109.145,-7.90915 L 109.529,-7.85905
 L 109.816,-7.70876 L 109.995,-7.46896 L 110.055,-7.15033 L 110.016,-6.90137 L 109.901,-6.70378 L 109.713,-6.5596
 L 109.455,-6.47083 L 109.455,-6.46271 L 109.74,-6.39149 L 109.955,-6.24706 L 110.089,-6.04262 L 110.134,-5.79137
 L 110.071,-5.43942 L 109.882,-5.17699 L 109.576,-5.01373 L 109.162,-4.95932 z
M 36.2095,-5 L 36.2095,-5.25835 L 36.3247,-5.48239 L 36.4628,-5.67844 L 36.6161,-5.85188 L 36.7771,-6.00803
 L 36.9411,-6.15019 L 37.1036,-6.28165 L 37.2575,-6.40778 L 37.3956,-6.53389 L 37.5133,-6.66309 L 37.6061,-6.79837
 L 37.6664,-6.94588 L 37.6865,-7.11166 L 37.6519,-7.32121 L 37.5481,-7.47787 L 37.3829,-7.57552 L 37.1637,-7.60808
 L 36.9503,-7.57628 L 36.7781,-7.4809 L 36.6579,-7.32808 L 36.6001,-7.12387 L 36.2258,-7.15846 L 36.3191,-7.46716
 L 36.5177,-7.70569 L 36.8048,-7.85829 L 37.1637,-7.90915 L 37.5469,-7.85805 L 37.8299,-7.7047 L 38.0046,-7.45728
 L 38.0629,-7.12387 L 38.0438,-6.95758 L 37.9866,-6.79228 L 37.8917,-6.62749 L 37.7597,-6.46271 L 37.5405,-6.25266
 L 37.184,-5.95207 L 36.9739,-5.77026 L 36.8117,-5.60725 L 36.6927,-5.45645 L 36.6124,-5.31125 L 38.1076,-5.31125
 L 38.1076,-5 z
M 48.2095,-5 L 48.2095,-5.25835 L 48.3247,-5.48239 L 48.4628,-5.67844 L 48.6161,-5.85188 L 48.7771,-6.00803
 L 48.9411,-6.15019 L 49.1036,-6.28165 L 49.2575,-6.40778 L 49.3956,-6.53389 L 49.5133,-6.66309 L 49.6061,-6.79837
 L 49.6664,-6.94588 L 49.6865,-7.11166 L 49.6519,-7.32121 L 49.5481,-7.47787 L 49.3829,-7.57552 L 49.1637,-7.60808
 L 48.9503,-7.57628 L 48.7781,-7.4809 L 48.6579,-7.32808 L 48.6001,-7.12387 L 48.2258,-7.15846 L 48.3191,-7.46716
 L 48.5177,-7.70569 L 48.8048,-7.85829 L 49.1637,-7.90915 L 49.5469,-7.85805 L 49.8299,-7.7047 L 50.0046,-7.45728
 L 50.0629,-7.12387 L 50.0438,-6.95758 L 49.9866,-6.79228 L 49.8917,-6.62749 L 49.7597,-6.46271 L 49.5405,-6.25266
 L 49.184,-5.95207 L 48.9739,-5.77026 L 48.8117,-5.60725 L 48.6927,-5.45645 L 48.6124,-5.31125 L 50.1076,-5.31125
 L 50.1076,-5 z
M 100.173,-4.99467 L 99.9377,-5.10071 L 99.764,-5.28558 L 99.6478,-5.55742 L 99.9977,-5.61235 L 100.174,-5.34381
 L 100.482,-5.2543 L 100.762,-5.32755 L 100.97,-5.54726 L 101.102,-5.90276 L 101.151,-6.38338 L 101.041,-6.21832
 L 100.872,-6.08939 L 100.665,-6.00624 L 100.439,-5.97853 L 100.091,-6.04465 L 99.8207,-6.24298 L 99.6468,-6.55069
 L 99.5888,-6.94487 L 99.6518,-7.34639 L 99.841,-7.65178 L 100.143,-7.8448 L 100.543,-7.90915 L 100.963,-7.82065
 L 101.267,-7.55515 L 101.452,-7.11218 L 101.513,-6.4912 L 101.446,-5.83817 L 101.244,-5.356 L 100.917,-5.05849
 L 100.476,-4.95932 z
M 100.68,-6.28546 L 100.822,-6.33961 L 100.943,-6.42685 L 101.036,-6.5441 L 101.095,-6.68549 L 101.115,-6.84517
 L 101.075,-7.15718 L 100.956,-7.40155 L 100.77,-7.55948 L 100.531,-7.61212 L 100.294,-7.56711 L 100.114,-7.43207
 L 99.9992,-7.22025 L 99.9611,-6.94487 L 99.9992,-6.66437 L 100.114,-6.44948 L 100.293,-6.31293 L 100.527,-6.2674
 z
M 78.4193,-5.00305 L 78.1345,-5.13428 L 77.9337,-5.34839 L 77.8233,-5.64082 L 78.1935,-5.68355 L 78.4005,-5.36465
 L 78.7896,-5.25835 L 79.0526,-5.30286 L 79.2514,-5.43634 L 79.3765,-5.64767 L 79.4182,-5.92564 L 79.3763,-6.17027
 L 79.2504,-6.36301 L 79.0533,-6.48813 L 78.7977,-6.52985 L 78.6543,-6.51814 L 78.5211,-6.48305 L 78.3929,-6.41998
 L 78.2647,-6.32437 L 77.9067,-6.32437 L 78.0023,-7.86644 L 79.6318,-7.86644 L 79.6318,-7.55518 L 78.3359,-7.55518
 L 78.281,-6.6458 L 78.548,-6.78311 L 78.873,-6.82889 L 79.2532,-6.76683 L 79.5474,-6.58069 L 79.7359,-6.29486
 L 79.7987,-5.93378 L 79.7313,-5.52843 L 79.5291,-5.21971 L 79.2074,-5.02441 L 78.7815,-4.95932 z
M 30.4193,-5.00305 L 30.1345,-5.13428 L 29.9337,-5.34839 L 29.8233,-5.64082 L 30.1935,-5.68355 L 30.4005,-5.36465
 L 30.7896,-5.25835 L 31.0526,-5.30286 L 31.2514,-5.43634 L 31.3765,-5.64767 L 31.4182,-5.92564 L 31.3763,-6.17027
 L 31.2504,-6.36301 L 31.0533,-6.48813 L 30.7977,-6.52985 L 30.6543,-6.51814 L 30.5211,-6.48305 L 30.3929,-6.41998
 L 30.2647,-6.32437 L 29.9067,-6.32437 L 30.0023,-7.86644 L 31.6318,-7.86644 L 31.6318,-7.55518 L 30.3359,-7.55518
 L 30.281,-6.6458 L 30.548,-6.78311 L 30.873,-6.82889 L 31.2532,-6.76683 L 31.5474,-6.58069 L 31.7359,-6.29486
 L 31.7987,-5.93378 L 31.7313,-5.52843 L 31.5291,-5.21971 L 31.2074,-5.02441 L 30.7815,-4.95932 z
M 126.419,-5.00305 L 126.135,-5.13428 L 125.934,-5.34839 L 125.823,-5.64082 L 126.194,-5.68355 L 126.401,-5.36465
 L 126.79,-5.25835 L 127.053,-5.30286 L 127.251,-5.43634 L 127.377,-5.64767 L 127.418,-5.92564 L 127.376,-6.17027
 L 127.25,-6.36301 L 127.053,-6.48813 L 126.798,-6.52985 L 126.654,-6.51814 L 126.521,-6.48305 L 126.393,-6.41998
 L 126.265,-6.32437 L 125.907,-6.32437 L 126.002,-7.86644 L 127.632,-7.86644 L 127.632,-7.55518 L 126.336,-7.55518
 L 126.281,-6.6458 L 126.548,-6.78311 L 126.873,-6.82889 L 127.253,-6.76683 L 127.547,-6.58069 L 127.736,-6.29486
 L 127.799,-5.93378 L 127.731,-5.52843 L 127.529,-5.21971 L 127.207,-5.02441 L 126.781,-4.95932 z
M 102.419,-5.00305 L 102.135,-5.13428 L 101.934,-5.34839 L 101.823,-5.64082 L 102.194,-5.68355 L 102.401,-5.36465
 L 102.79,-5.25835 L 103.053,-5.30286 L 103.251,-5.43634 L 103.377,-5.64767 L 103.418,-5.92564 L 103.376,-6.17027
 L 103.25,-6.36301 L 103.053,-6.48813 L 102.798,-6.52985 L 102.654,-6.51814 L 102.521,-6.48305 L 102.393,-6.41998
 L 102.265,-6.32437 L 101.907,-6.32437 L 102.002,-7.86644 L 103.632,-7.86644 L 103.632,-7.55518 L 102.336,-7.55518
 L 102.281,-6.6458 L 102.548,-6.78311 L 102.873,-6.82889 L 103.253,-6.76683 L 103.547,-6.58069 L 103.736,-6.29486
 L 103.799,-5.93378 L 103.731,-5.52843 L 103.529,-5.21971 L 103.207,-5.02441 L 102.781,-4.95932 z
M 40.136,-5 L 40.1943,-5.56377 L 40.369,-6.15652 L 40.68,-6.80981 L 41.1471,-7.55518 L 39.6071,-7.55518
 L 39.6071,-7.86644 L 41.5011,-7.86644 L 41.5011,-7.5694 L 41.1263,-6.97079 L 40.8806,-6.51764 L 40.7222,-6.13974
 L 40.609,-5.76694 L 40.5411,-5.39008 L 40.5185,-5 z
M 54.4193,-5.00305 L 54.1345,-5.13428 L 53.9337,-5.34839 L 53.8233,-5.64082 L 54.1935,-5.68355 L 54.4005,-5.36465
 L 54.7896,-5.25835 L 55.0526,-5.30286 L 55.2514,-5.43634 L 55.3765,-5.64767 L 55.4182,-5.92564 L 55.3763,-6.17027
 L 55.2504,-6.36301 L 55.0533,-6.48813 L 54.7977,-6.52985 L 54.6543,-6.51814 L 54.5211,-6.48305 L 54.3929,-6.41998
 L 54.2647,-6.32437 L 53.9067,-6.32437 L 54.0023,-7.86644 L 55.6318,-7.86644 L 55.6318,-7.55518 L 54.3359,-7.55518
 L 54.281,-6.6458 L 54.548,-6.78311 L 54.873,-6.82889 L 55.2532,-6.76683 L 55.5474,-6.58069 L 55.7359,-6.29486
 L 55.7987,-5.93378 L 55.7313,-5.52843 L 55.5291,-5.21971 L 55.2074,-5.02441 L 54.7815,-4.95932 z
M 52.136,-5 L 52.1943,-5.56377 L 52.369,-6.15652 L 52.68,-6.80981 L 53.1471,-7.55518 L 51.6071,-7.55518
 L 51.6071,-7.86644 L 53.5011,-7.86644 L 53.5011,-7.5694 L 53.1263,-6.97079 L 52.8806,-6.51764 L 52.7222,-6.13974
 L 52.609,-5.76694 L 52.5411,-5.39008 L 52.5185,-5 z
M 38.6434,-5 L 38.6434,-5.44553 L 39.0401,-5.44553 L 39.0401,-5 z
M 26.6434,-5 L 26.6434,-5.44553 L 27.0401,-5.44553 L 27.0401,-5 z
M 86.6434,-5 L 86.6434,-5.44553 L 87.0401,-5.44553 L 87.0401,-5 z
M 62.6434,-5 L 62.6434,-5.44553 L 63.0401,-5.44553 L 63.0401,-5 z
M 98.6434,-5 L 98.6434,-5.44553 L 99.0401,-5.44553 L 99.0401,-5 z
M 14.6434,-5 L 14.6434,-5.44553 L 15.0401,-5.44553 L 15.0401,-5 z
M 74.6434,-5 L 74.6434,-5.44553 L 75.0401,-5.44553 L 75.0401,-5 z
M 122.643,-5 L 122.643,-5.44553 L 123.04,-5.44553 L 123.04,-5 z
M 50.6434,-5 L 50.6434,-5.44553 L 51.0401,-5.44553 L 51.0401,-5 z
" stroke="black" fill="lightgray" stroke-width="0.5"/>
</svg>
